HIERARCHY
ROOT Hips
{
	OFFSET 0.00000 0.00000 0.00000
	CHANNELS 6 Xposition Yposition Zposition Yrotation Zrotation Xrotation 
	JOINT Lumbar
	{
		OFFSET 0 0 0
		CHANNELS 3 Zrotation Xrotation Yrotation
		JOINT Neck
		{
			OFFSET 0.00 0.2701 0.00
			CHANNELS 3 Zrotation Xrotation Yrotation
			End Site
			{
				OFFSET 0.00 0.1379 0.00
			}
		}
		JOINT RightShoulder
		{
			OFFSET 0.0119 0.2289 0.1181
			CHANNELS 3 Zrotation Xrotation Yrotation
			JOINT RightElbow
			{
				OFFSET 0.00 -0.1475 0.00
				CHANNELS 2 Zrotation Yrotation
				JOINT RightWrist
				{
					OFFSET 0.00 -0.1605 0.00
					CHANNELS 2 Zrotation Xrotation
					End Site
					{
						OFFSET 0.0040 -0.1068 0.0006
					}
				}
			}
		}
		JOINT LeftShoulder
		{
			OFFSET 0.0119 0.2289 -0.1181
			CHANNELS 3 Zrotation Xrotation Yrotation
			JOINT LeftElbow
			{
				OFFSET 0.00 -0.1475 0.00
				CHANNELS 2 Zrotation Yrotation
				JOINT LeftWrist
				{
					OFFSET 0.00 -0.1605 0.00
					CHANNELS 2 Zrotation Xrotation
					End Site
					{
						OFFSET 0.0040 -0.1068 -0.0006
					}
				}
			}
		}
	}
	JOINT RightHip
	{
		OFFSET 0.0316 -0.0424 0.0458
		CHANNELS 3 Zrotation Xrotation Yrotation
		JOINT RightKnee
		{
			OFFSET 0.00 -0.2438 0.00
			CHANNELS 1 Zrotation
			JOINT RightAnkle
			{
				OFFSET 0.00 -0.2449 0.00
				CHANNELS 3 Zrotation Xrotation Yrotation
				End Site
				{
					OFFSET 0.1237 -0.0542 0.0051
				}
			}
		}
	}
	JOINT LeftHip
	{
		OFFSET 0.0316 -0.0424 -0.0458
		CHANNELS 3 Zrotation Xrotation Yrotation
		JOINT LeftKnee
		{
			OFFSET 0.00 -0.2438 0.00
			CHANNELS 1 Zrotation
			JOINT LeftAnkle
			{
				OFFSET 0.00 -0.2449 0.00
				CHANNELS 3 Zrotation Xrotation Yrotation
				End Site
				{
					OFFSET 0.1237 -0.0542 -0.0051
				}
			}
		}
	}
}
MOTION
Frames: 13
Frame Time: 0.02
-0.02837 -0.00434 -0.05727 139.98974 -18.36652 -4.73264 41.18863 -5.54151 -9.7637 -15.18325 12.15741 -2.11994 -49.16519 -5.94929 -23.45339 40.22438 86.15791 -41.5968 -3.54177 -57.51321 54.05249 -40.19245 117.69941 -106.74518 -44.19575 5.78577 14.56446 -1.30732 -25.16718 -48.50946 -20.26327 -0.16723 -2.90594 19.40433 0.6224 16.03865 -25.59117 -7.18922 3.74707 4.088
-0.02907 -0.00426 -0.05721 140.70195 -18.49793 -4.62494 41.24797 -5.51865 -9.28492 -15.33998 11.2279 -2.11994 -49.10601 -5.8484 -23.24321 40.45976 85.83038 -40.31105 -3.50661 -57.37789 54.02631 -39.8792 117.6824 -106.59799 -43.58207 5.791 14.60112 -1.1708 -25.14403 -48.34875 -20.27722 -0.15847 -2.90195 19.46669 0.58618 16.00126 -25.6121 -7.12961 3.68329 4.05277
-0.02977 -0.00419 -0.05728 141.4278 -18.63343 -4.50789 41.31051 -5.50876 -8.81751 -15.51239 10.25367 -2.11994 -49.08427 -5.73466 -23.00528 40.70523 85.34742 -38.69779 -3.4746 -57.42966 53.85016 -39.3188 117.66265 -106.9965 -43.50873 5.84886 14.63015 -1.02779 -25.10882 -48.17698 -20.29042 -0.14731 -2.89659 19.52122 0.57195 16.03334 -25.64034 -7.06348 3.61104 4.01287
-0.03048 -0.00412 -0.0573 142.14857 -18.76578 -4.39476 41.37028 -5.49469 -8.34478 -15.67811 9.30445 -2.11994 -49.04784 -5.61711 -22.79672 40.94957 84.97432 -37.31228 -3.44405 -57.41501 53.72364 -38.84724 117.64561 -107.20792 -43.2247 5.89014 14.65875 -0.88523 -25.07779 -48.00641 -20.30353 -0.13707 -2.89174 19.57764 0.54801 16.02699 -25.66457 -7.0015 3.54297 3.97534
-0.03118 -0.00406 -0.05727 142.86417 -18.90321 -4.28229 41.436 -5.47299 -7.87143 -15.84305 8.33041 -2.11994 -49.00246 -5.53719 -22.52056 41.1804 84.44043 -35.58666 -3.40036 -57.31991 53.67647 -38.47479 117.62229 -107.15702 -42.78381 5.90006 14.70382 -0.75084 -25.04915 -47.84976 -20.31886 -0.12789 -2.88759 19.64047 0.52182 16.04613 -25.6915 -6.9349 3.47365 3.93684
-0.03188 -0.00397 -0.05738 143.59389 -19.03124 -4.16649 41.48961 -5.4704 -7.40286 -16.01241 7.40024 -2.11994 -48.98443 -5.37842 -22.37595 41.44117 84.19915 -34.48903 -3.38501 -57.43513 53.4287 -37.84036 117.6111 -107.77778 -42.79658 5.98748 14.71271 -0.59976 -25.01399 -47.66423 -20.32877 -0.11574 -2.88151 19.68849 0.50596 16.03038 -25.71467 -6.8762 3.40487 3.89922
-0.03256 -0.00373 -0.05783 144.35985 -19.13143 -4.04407 41.5127 -5.51739 -6.94129 -16.19655 6.59196 -2.11994 -49.03072 -4.98828 -22.61924 41.78385 84.84808 -35.27141 -3.44862 -58.11538 52.65488 -36.50432 117.63814 -110.19797 -43.99343 6.28181 14.62514 -0.39283 -24.96177 -47.38065 -20.32995 -0.09674 -2.8712 19.69566 0.51337 15.89628 -25.72524 -6.84137 3.33963 3.86526
-0.03323 -0.00346 -0.0584 145.13955 -19.22212 -3.9188 41.52254 -5.58318 -6.48515 -16.38331 5.83206 -2.11994 -49.10317 -4.52281 -22.99221 42.15553 85.78859 -36.68646 -3.54039 -58.99589 51.6861 -34.92011 117.67681 -113.26209 -45.61855 6.65138 14.50182 -0.17183 -24.90401 -47.07376 -20.32472 -0.07468 -2.85886 19.68869 0.5307 15.7258 -25.73191 -6.8146 3.27521 3.83233
-0.0339 -0.00322 -0.05891 145.91258 -19.3179 -3.79458 41.53637 -5.64049 -6.02856 -16.56462 5.057 -2.11994 -49.16527 -4.10274 -23.29406 42.5131 86.56641 -37.77086 -3.61861 -59.76569 50.81157 -33.47405 117.70756 -115.98234 -47.00811 6.98284 14.39298 0.0353 -24.85075 -46.78954 -20.31831 -0.05348 -2.84691 19.68938 0.54339 15.57602 -25.74063 -6.78378 3.21041 3.79886
-0.03459 -0.00293 -0.05945 146.68766 -19.41097 -3.67053 41.55999 -5.69816 -5.5628 -16.76454 4.25062 -2.11994 -49.22354 -3.6341 -23.64695 42.87632 87.46587 -39.02656 -3.70062 -60.62513 49.90639 -31.91135 117.7493 -118.93918 -48.58896 7.33264 14.2885 0.27498 -24.78944 -46.44808 -20.3286 -0.03442 -2.83708 19.68426 0.55677 15.41205 -25.74827 -6.75434 3.14532 3.76551
-0.03522 -0.00274 -0.05996 147.4618 -19.50687 -3.54624 41.55867 -5.75915 -5.11858 -16.92603 3.52267 -2.11994 -49.29385 -3.25013 -23.92403 43.23281 88.18371 -40.07891 -3.78073 -61.34297 49.02271 -30.53709 117.77097 -121.54722 -49.86618 7.66144 14.17012 0.44918 -24.74275 -46.22781 -20.30327 -0.01026 -2.82247 19.68841 0.57154 15.26679 -25.75736 -6.72406 3.08117 3.73227
-0.03574 -0.00286 -0.06038 148.22778 -19.61747 -3.41645 41.50329 -5.82654 -4.72185 -16.9814 2.99044 -2.11994 -49.40528 -3.1082 -23.96538 43.57851 88.32467 -40.42543 -3.85454 -61.62031 48.22963 -29.73503 117.73429 -123.04852 -50.19768 7.91312 13.99191 0.44696 -24.74667 -46.2837 -20.17534 0.02775 -2.79445 19.7183 0.58143 15.19397 -25.76935 -6.68922 3.01905 3.69875
-0.03619 -0.00308 -0.06076 148.99266 -19.73044 -3.2877 41.42118 -5.89616 -4.34876 -16.9978 2.53748 -2.11994 -49.52523 -3.05616 -23.92494 43.91383 88.27385 -40.54442 -3.92441 -61.74739 47.46893 -29.13433 117.67697 -124.17127 -50.20679 8.14073 13.80681 0.37681 -24.76413 -46.47343 -20.01289 0.07063 -2.76186 19.75877 0.59361 15.1392 -25.78312 -6.65338 2.9579 3.66539
